<?xml version="1.0" standalone="no"?>
<!DOCTYPE svg PUBLIC "-//W3C//DTD SVG 20010904//EN"
 "http://www.w3.org/TR/2001/REC-SVG-20010904/DTD/svg10.dtd">
<svg version="1.0" xmlns="http://www.w3.org/2000/svg"
 width="350.000000pt" height="216.000000pt" viewBox="0 0 350.000000 216.000000"
 preserveAspectRatio="xMidYMid meet">
<metadata>
Created by potrace 1.15, written by Peter Selinger 2001-2017
</metadata>
<g transform="translate(0.000000,216.000000) scale(0.100000,-0.100000)"
fill="#000000" stroke="none">
<path d="M2860 2036 c-28 -26 -109 -66 -137 -67 l-28 -1 28 -8 c23 -7 37 -2
80 26 28 19 54 34 58 34 12 0 95 -130 234 -370 56 -96 112 -192 124 -212 27
-45 25 -46 -85 -18 l-79 21 -17 -21 c-17 -21 -50 -28 -46 -9 4 17 -15 20 -32
6 -9 -7 -37 -43 -62 -82 -25 -38 -60 -80 -77 -93 -17 -12 -31 -29 -31 -37 0
-8 -6 -15 -14 -15 -15 0 -32 -37 -22 -48 4 -3 13 4 22 16 8 12 21 19 29 16 11
-5 15 1 15 20 0 17 5 26 16 26 18 0 36 20 96 103 33 47 46 57 62 53 12 -3 27
-6 34 -6 6 0 12 -6 12 -14 0 -8 15 -19 33 -25 43 -14 169 -42 172 -39 1 2 8
13 14 26 9 18 16 21 25 13 10 -8 17 -7 26 4 10 12 1 32 -52 117 -77 122 -119
194 -178 303 -72 134 -178 295 -195 295 -6 0 -17 -6 -25 -14z"/>
<path d="M1845 1680 c-103 -67 -95 -56 -101 -154 -5 -80 -3 -93 21 -141 29
-61 28 -76 -15 -170 -23 -48 -37 -65 -72 -85 -45 -25 -67 -47 -68 -67 0 -6
-11 -29 -25 -50 -25 -37 -33 -41 -163 -82 -194 -61 -185 -56 -278 -147 -87
-86 -139 -123 -212 -148 l-42 -15 0 30 c0 22 -6 32 -20 36 -20 5 -28 23 -10
23 6 0 10 5 10 10 0 19 -28 10 -44 -15 -18 -27 -30 -85 -17 -85 3 0 17 7 29
16 26 18 29 4 6 -31 -16 -24 -16 -25 8 -25 50 0 145 32 198 67 30 19 89 70
130 112 58 59 85 80 120 89 126 37 278 87 298 100 13 8 21 22 20 31 -2 10 8
21 26 29 28 12 28 13 10 27 -11 8 -14 15 -6 15 6 0 12 7 12 15 0 8 16 21 35
29 44 19 85 59 85 85 0 11 10 27 21 35 14 10 20 22 16 35 -3 11 -1 21 5 23 5
2 12 22 15 45 5 35 2 42 -14 47 -28 9 -45 74 -37 136 4 28 11 53 15 56 15 9
10 24 -7 24 -14 0 -14 3 -4 15 7 8 19 15 26 15 8 0 38 15 67 34 50 32 56 33
90 23 20 -7 37 -18 37 -24 0 -7 8 -13 18 -13 9 0 24 -5 32 -10 13 -8 12 -11
-5 -24 -11 -8 -17 -18 -12 -22 4 -4 7 -2 7 4 0 19 28 14 40 -8 6 -11 15 -20
21 -20 9 0 -6 39 -20 50 -4 3 -14 17 -24 33 -10 15 -24 27 -32 27 -8 0 -19 8
-24 19 -8 14 -85 45 -103 40 -2 0 -30 -18 -63 -39z"/>
<path d="M2159 1290 c-73 -4 -100 -9 -113 -22 -10 -10 -21 -18 -26 -18 -4 0
-10 -6 -13 -14 -4 -9 7 -6 29 9 19 13 42 21 52 19 9 -3 87 -9 172 -14 85 -5
175 -13 200 -19 25 -6 62 -15 82 -20 26 -6 36 -6 31 2 -4 6 0 8 10 4 24 -9 21
2 -5 25 -18 15 -32 18 -61 14 -29 -5 -39 -3 -44 10 -3 8 -9 11 -12 6 -4 -6
-25 -6 -56 -1 -117 21 -155 24 -246 19z"/>
<path d="M707 1073 c-13 -12 -7 -48 13 -88 14 -27 20 -59 20 -100 l0 -60 -26
45 c-14 25 -38 59 -53 75 -16 17 -31 37 -34 46 -16 48 -225 104 -240 65 -9
-24 2 -45 33 -61 15 -8 42 -33 60 -55 30 -38 32 -43 19 -66 -10 -19 -10 -34
-2 -65 6 -22 7 -41 3 -44 -4 -2 -29 4 -56 14 -105 40 -198 36 -239 -9 -15 -17
-16 -24 -7 -45 9 -20 19 -25 50 -25 37 0 189 -44 205 -59 4 -5 -6 -14 -23 -21
-41 -17 -53 -42 -38 -74 9 -20 18 -26 45 -26 l34 0 -16 -30 c-8 -16 -15 -39
-15 -52 0 -32 53 -120 91 -152 31 -26 57 -30 51 -7 -1 6 3 11 8 11 7 0 8 13 4
35 -6 34 7 48 22 24 4 -6 19 -8 37 -5 17 3 27 3 24 -1 -11 -10 34 -53 55 -53
11 0 17 4 14 9 -3 5 1 12 10 15 8 3 12 11 8 17 -5 8 6 9 36 4 30 -5 41 -4 36
4 -4 6 -2 11 4 11 8 0 9 10 5 30 -5 23 -3 30 8 30 25 0 54 -47 61 -97 14 -98
69 -189 158 -264 l59 -49 377 2 c322 3 377 5 377 18 0 12 -52 14 -372 11
l-371 -3 -60 60 c-75 75 -109 133 -123 208 -19 102 -62 164 -113 164 -51 0
-62 -13 -49 -54 11 -35 -1 -53 -13 -21 -4 8 -12 15 -20 15 -10 0 -12 9 -8 33
4 24 3 28 -5 17 -13 -18 -15 -103 -2 -96 5 4 7 -3 4 -14 -14 -54 -58 12 -50
75 l7 45 -21 -21 c-11 -11 -24 -17 -29 -14 -6 4 -10 -6 -10 -20 0 -32 -23 -29
-28 3 -2 12 -8 22 -13 22 -5 0 -9 8 -9 18 -1 10 -9 1 -21 -22 -14 -25 -20 -52
-17 -77 3 -36 2 -37 -14 -22 -10 9 -18 24 -18 35 0 10 -6 18 -14 18 -8 0 -17
7 -20 16 -14 35 -5 66 29 101 34 35 37 53 9 53 -8 0 -14 5 -14 10 0 6 -10 10
-22 11 -22 1 -22 1 2 9 42 13 94 11 118 -6 13 -9 26 -13 30 -9 4 4 1 10 -6 12
-7 3 -25 15 -40 27 -34 29 -111 69 -182 96 -30 12 -58 26 -61 32 -4 6 -19 11
-35 12 -39 3 -46 20 -10 24 31 4 196 -45 196 -57 0 -4 21 -22 48 -41 26 -18
41 -26 33 -17 -17 21 -3 22 29 1 20 -13 19 -11 -5 13 -21 20 -31 40 -33 68 -2
21 -10 49 -18 61 -13 19 -13 22 5 27 13 3 22 -1 26 -12 8 -27 67 -114 109
-162 43 -48 39 -35 -6 22 -33 42 -60 85 -90 149 -11 25 -36 65 -55 89 -18 24
-33 48 -33 52 0 10 32 0 45 -15 6 -6 21 -20 35 -31 23 -19 23 -18 -3 13 -15
19 -24 38 -21 43 3 5 21 -11 40 -36 35 -46 51 -57 40 -30 -11 29 3 15 28 -27
13 -24 32 -71 42 -106 l17 -64 14 39 c34 99 37 184 7 258 -7 18 -6 18 7 5 31
-30 69 -108 70 -141 1 -19 4 -45 9 -59 6 -19 8 -11 8 30 1 110 -107 277 -151
233z"/>
<path d="M3283 1027 c-42 -43 -132 -159 -138 -178 -4 -10 -13 -19 -21 -19 -8
0 -14 -4 -14 -10 0 -5 -8 -19 -17 -30 -10 -11 -26 -29 -35 -40 -10 -11 -15
-20 -10 -20 4 0 0 -4 -8 -10 -8 -5 -11 -12 -6 -17 4 -4 12 0 17 10 11 18 118
153 182 227 l37 44 1 -250 c3 -507 7 -666 20 -695 12 -31 47 -46 76 -34 15 6
13 10 -14 21 -33 14 -33 15 -33 82 -1 37 -3 189 -5 337 -2 149 -5 345 -5 438
-1 92 -2 167 -3 166 -1 0 -12 -10 -24 -22z"/>
<path d="M2057 994 c-4 -4 -7 -20 -7 -35 0 -39 -48 -64 -80 -42 -21 15 -21 14
-8 -6 7 -11 16 -21 20 -21 5 0 8 -4 8 -9 0 -4 -24 -13 -52 -19 l-53 -11 49 5
c60 7 186 45 169 51 -21 7 -15 23 8 23 13 0 18 -4 13 -12 -5 -8 -2 -9 12 -3
24 11 78 10 124 -2 l34 -9 -34 -20 c-92 -53 -141 -68 -285 -88 -16 -2 1 -4 39
-3 70 0 128 15 178 45 33 19 43 12 34 -23 -5 -20 -21 -33 -64 -53 -47 -21 -76
-27 -172 -31 -87 -4 -103 -7 -65 -11 61 -6 189 6 217 21 11 6 22 8 25 6 9 -10
-8 -67 -19 -64 -6 1 -17 -9 -25 -23 -7 -14 -13 -20 -13 -13 0 6 -9 9 -20 6
-11 -3 -20 -8 -20 -12 0 -3 -44 -5 -97 -3 -54 2 -95 0 -91 -4 4 -3 43 -6 88
-6 47 1 80 -3 80 -9 0 -17 -52 -30 -99 -24 -45 6 -46 5 -16 -8 17 -8 37 -13
45 -12 8 1 9 0 3 -2 -18 -6 -16 -13 9 -40 16 -17 18 -22 6 -18 -14 6 -17 -4
-20 -65 -1 -39 1 -75 6 -80 15 -15 -2 -24 -19 -10 -12 10 -15 10 -15 -4 0 -18
27 -21 50 -6 12 7 12 12 2 22 -15 15 -16 48 0 48 6 0 21 -8 32 -17 21 -18 21
-17 0 7 -39 46 -43 60 -25 92 14 25 14 30 1 38 -13 8 -12 10 4 10 26 0 202
-178 221 -224 8 -19 15 -50 15 -69 0 -33 -1 -33 -43 -33 -42 1 -43 2 -44 35
-2 54 -18 55 -18 1 0 -47 6 -56 30 -50 11 3 65 1 108 -4 15 -2 27 0 27 4 0 15
37 17 66 4 l29 -14 -27 5 c-20 4 -28 1 -28 -9 0 -12 14 -14 68 -12 61 3 68 2
68 -15 0 -18 -5 -20 -45 -23 -8 -1 -16 -7 -19 -15 -3 -10 2 -12 20 -8 22 6 25
4 21 -16 -4 -22 -9 -23 -68 -21 -34 1 -77 10 -95 19 -17 9 -34 15 -36 12 -13
-12 12 -34 61 -55 60 -24 80 -27 70 -12 -4 6 6 10 22 10 19 0 24 -3 14 -9 -10
-7 -10 -12 5 -30 18 -21 25 -21 326 -21 183 0 309 4 313 9 9 15 -50 21 -189
18 -96 -1 -130 1 -133 10 -4 10 -10 10 -24 2 -28 -15 -240 -23 -259 -9 -13 9
-9 16 23 46 30 28 45 35 68 32 l28 -4 3 105 c2 58 -1 115 -5 127 -10 24 -57
54 -85 54 -12 0 -24 5 -27 11 -4 6 -13 8 -20 5 -7 -2 -21 4 -31 15 -10 11 -24
17 -32 14 -10 -3 -12 0 -8 10 3 8 0 15 -7 15 -8 0 -6 4 3 10 12 8 11 10 -8 10
-13 0 -37 7 -55 16 -21 12 -32 13 -35 5 -6 -17 -32 -13 -32 5 0 9 5 12 13 8
12 -7 -28 42 -48 59 -11 9 18 4 49 -9 14 -5 17 -4 11 5 -5 10 -2 11 14 6 16
-5 20 -3 15 9 -3 9 -12 16 -20 16 -18 0 -18 25 0 43 11 11 12 17 3 27 -10 10
-7 11 12 5 17 -5 21 -4 16 5 -4 7 5 24 21 42 19 20 25 32 17 35 -19 7 -16 40
5 52 16 9 16 11 -3 26 -19 16 -19 16 15 11 19 -4 46 -14 60 -24 27 -20 100
-36 100 -22 0 4 -12 18 -27 29 -18 13 -24 23 -17 28 6 5 14 22 18 38 6 29 6
29 -9 10 -36 -46 -56 -65 -67 -65 -9 0 -9 3 -2 8 6 4 13 15 17 24 6 16 1 17
-38 13 -35 -5 -47 -2 -51 10 -3 8 -15 15 -26 15 -15 0 -19 5 -15 19 6 26 -48
48 -133 55 -36 2 -76 8 -90 11 -14 4 -29 3 -33 -1z m228 -165 c35 -7 31 -59
-9 -122 -20 -31 -36 -61 -36 -66 0 -6 -12 -21 -27 -35 l-27 -25 26 -63 c15
-35 28 -86 31 -114 l4 -52 -36 37 c-20 20 -32 39 -28 42 4 3 1 12 -8 19 -12
10 -15 10 -15 -1 0 -22 -67 57 -81 95 -7 19 -16 33 -20 30 -4 -2 -5 5 -2 16 6
24 39 44 59 36 7 -3 13 -2 11 2 -1 4 8 17 21 30 12 12 25 36 28 52 4 16 17 36
30 45 14 9 22 20 19 26 -4 5 -1 8 7 7 7 -2 14 6 14 17 4 49 4 50 12 39 4 -7
16 -13 27 -15z m171 -457 l89 -38 0 -95 c0 -88 -1 -94 -21 -97 -15 -2 -23 3
-27 17 -3 12 0 21 6 21 7 0 1 9 -13 20 -15 12 -41 20 -64 20 -27 0 -47 7 -63
22 -17 16 -23 18 -24 7 -1 -8 -5 -3 -9 11 l-8 25 -1 -27 c-1 -17 -7 -28 -15
-28 -8 0 -21 -3 -30 -6 -13 -5 -16 1 -16 31 0 27 4 36 13 32 11 -4 14 8 16 46
1 49 21 96 21 51 0 -11 7 -29 15 -40 13 -18 14 -17 15 18 0 44 10 74 19 59 4
-6 47 -28 97 -49z"/>
<path d="M2072 237 c-17 -18 -21 -31 -16 -54 4 -20 2 -33 -7 -38 -8 -5 -10 -4
-5 3 4 7 -6 17 -26 26 -31 13 -31 14 -8 15 19 1 21 4 11 10 -11 7 -10 10 5 14
13 3 11 5 -8 6 -16 0 -28 -3 -28 -8 0 -5 -3 -16 -6 -25 -4 -11 -1 -16 10 -16
8 0 24 -12 33 -27 10 -16 30 -40 45 -55 30 -29 90 -48 96 -29 2 6 8 9 13 5 5
-3 9 -1 9 4 0 6 7 13 16 16 9 3 12 2 9 -5 -11 -17 15 -68 38 -75 22 -7 48 18
46 45 -1 13 -2 12 -6 -1 -4 -14 -8 -16 -24 -8 -14 8 -19 21 -19 49 0 39 0 39
-65 62 -69 24 -84 44 -70 88 9 29 -15 27 -43 -2z"/>
</g>
</svg>
